<svg width="1920" height="1080" viewBox="0 0 1920 1080" xmlns="http://www.w3.org/2000/svg">
  <defs>
    <!-- Gradients -->
    <linearGradient id="mainGradient" x1="0%" y1="0%" x2="100%" y2="100%">
      <stop offset="0%" style="stop-color:#e2a9f1;stop-opacity:0.9" />
      <stop offset="50%" style="stop-color:#1A1A1A;stop-opacity:0.8" />
      <stop offset="100%" style="stop-color:#b86cd9;stop-opacity:0.7" />
    </linearGradient>
    
    <radialGradient id="spotlight" cx="50%" cy="30%" r="60%">
      <stop offset="0%" style="stop-color:#ffffff;stop-opacity:0.1" />
      <stop offset="70%" style="stop-color:#ffffff;stop-opacity:0.05" />
      <stop offset="100%" style="stop-color:#ffffff;stop-opacity:0" />
    </radialGradient>
    
    <!-- Pattern -->
    <pattern id="dots" x="0" y="0" width="60" height="60" patternUnits="userSpaceOnUse">
      <circle cx="30" cy="30" r="1.5" fill="#ffffff" opacity="0.1"/>
    </pattern>
    
    <pattern id="lines" x="0" y="0" width="100" height="100" patternUnits="userSpaceOnUse">
      <path d="M0,50 L100,50" stroke="#ffffff" stroke-width="0.5" opacity="0.05"/>
      <path d="M50,0 L50,100" stroke="#ffffff" stroke-width="0.5" opacity="0.05"/>
    </pattern>
  </defs>
  
  <!-- Main background -->
  <rect width="100%" height="100%" fill="url(#mainGradient)"/>
  
  <!-- Spotlight effect -->
  <rect width="100%" height="100%" fill="url(#spotlight)"/>
  
  <!-- Decorative elements -->
  <circle cx="200" cy="200" r="80" fill="#b86cd9" opacity="0.12"/>
  <circle cx="1720" cy="300" r="120" fill="#e2a9f1" opacity="0.10"/>
  <circle cx="300" cy="800" r="60" fill="#b86cd9" opacity="0.14"/>
  <circle cx="1600" cy="900" r="100" fill="#e2a9f1" opacity="0.10"/>
  
  <!-- Geometric shapes -->
  <polygon points="100,100 200,50 300,150 200,200" fill="#ffffff" opacity="0.03"/>
  <polygon points="1600,200 1700,150 1800,250 1700,300" fill="#ffffff" opacity="0.04"/>
  <polygon points="150,900 250,850 350,950 250,1000" fill="#ffffff" opacity="0.02"/>
  
  <!-- Pattern overlays -->
  <rect width="100%" height="100%" fill="url(#dots)"/>
  <rect width="100%" height="100%" fill="url(#lines)"/>
  
  <!-- Subtle lines -->
  <line x1="0" y1="400" x2="1920" y2="400" stroke="#ffffff" stroke-width="1" opacity="0.05"/>
  <line x1="0" y1="600" x2="1920" y2="600" stroke="#ffffff" stroke-width="1" opacity="0.05"/>
  <line x1="0" y1="800" x2="1920" y2="800" stroke="#ffffff" stroke-width="1" opacity="0.05"/>
</svg>
